<?xml version="1.0" encoding="iso-8859-1"?>
<!-- Uploaded to: SVG Repo, www.svgrepo.com, Generator: SVG Repo Mixer Tools -->
<!DOCTYPE svg PUBLIC "-//W3C//DTD SVG 1.1//EN" "http://www.w3.org/Graphics/SVG/1.1/DTD/svg11.dtd">
<svg fill="#000000" height="800px" width="800px" version="1.1" id="Capa_1" xmlns="http://www.w3.org/2000/svg" xmlns:xlink="http://www.w3.org/1999/xlink" 
	 viewBox="0 0 403 403" xml:space="preserve">
<g>
	<path d="M201.5,174.506c-54.287,0-98.453,44.166-98.453,98.453s44.166,98.453,98.453,98.453c54.287,0,98.453-44.166,98.453-98.453
		S255.786,174.506,201.5,174.506z M201.5,356.411c-46.016,0-83.453-37.437-83.453-83.453s37.437-83.453,83.453-83.453
		s83.453,37.437,83.453,83.453S247.516,356.411,201.5,356.411z"/>
	<path d="M201.5,202.41c-38.9,0-70.548,31.648-70.548,70.549s31.648,70.549,70.548,70.549c38.901,0,70.549-31.648,70.549-70.549
		S240.401,202.41,201.5,202.41z M201.5,328.508c-30.629,0-55.548-24.919-55.548-55.549S170.87,217.41,201.5,217.41
		c30.63,0,55.549,24.919,55.549,55.549S232.13,328.508,201.5,328.508z"/>
	<path d="M201.5,249.89c-12.72,0-23.068,10.348-23.068,23.068s10.349,23.068,23.068,23.068c12.72,0,23.069-10.348,23.069-23.068
		S214.22,249.89,201.5,249.89z M201.5,281.027c-4.449,0-8.068-3.619-8.068-8.068s3.62-8.068,8.068-8.068s8.069,3.619,8.069,8.068
		S205.948,281.027,201.5,281.027z"/>
	<path d="M132.648,172.719c16.322,0,29.602-13.279,29.602-29.601s-13.279-29.602-29.602-29.602s-29.601,13.279-29.601,29.602
		S116.326,172.719,132.648,172.719z M132.648,128.516c8.051,0,14.602,6.55,14.602,14.602s-6.55,14.601-14.602,14.601
		s-14.601-6.55-14.601-14.601S124.597,128.516,132.648,128.516z"/>
	<path d="M235.676,73.655c-12.72,0-23.068,10.349-23.068,23.069s10.349,23.068,23.068,23.068s23.068-10.348,23.068-23.068
		S248.396,73.655,235.676,73.655z M235.676,104.792c-4.449,0-8.068-3.619-8.068-8.068s3.619-8.069,8.068-8.069
		s8.068,3.62,8.068,8.069S240.125,104.792,235.676,104.792z"/>
	<path d="M235.676,32.447c-35.442,0-64.277,28.834-64.277,64.277S200.234,161,235.676,161s64.276-28.834,64.276-64.277
		S271.118,32.447,235.676,32.447z M235.676,146c-27.171,0-49.277-22.105-49.277-49.277s22.106-49.277,49.277-49.277
		s49.276,22.105,49.276,49.277S262.847,146,235.676,146z"/>
	<path d="M295.844,0H107.156C89.976,0,76,13.977,76,31.156v340.688C76,389.023,89.976,403,107.156,403h188.688
		c17.18,0,31.156-13.977,31.156-31.156V31.156C327,13.977,313.024,0,295.844,0z M312,371.844c0,8.909-7.248,16.156-16.156,16.156
		H107.156C98.247,388,91,380.752,91,371.844V31.156C91,22.248,98.247,15,107.156,15h188.688C304.752,15,312,22.248,312,31.156
		V371.844z"/>
</g>
</svg>